<?xml version="1.0" encoding="UTF-8"?>
<svg id="Layer_1" data-name="Layer 1" xmlns="http://www.w3.org/2000/svg" xmlns:xlink="http://www.w3.org/1999/xlink" viewBox="27.87 398.46 903.34 163.18">
  <defs>
    <style>
      .cls-1 {
        fill: url(#linear-gradient);
      }

      .cls-1, .cls-2, .cls-3, .cls-4, .cls-5 {
        stroke-width: 0px;
      }

      .cls-2 {
        fill: none;
      }

      .cls-3 {
        fill: #fff;
      }

      .cls-4 {
        fill: #111f68;
      }

      .cls-6 {
        clip-path: url(#clippath);
      }

      .cls-5 {
        fill: #0b23a9;
      }

      .cls-7 {
        mask: url(#mask);
      }
    </style>
    <clipPath id="clippath">
      <rect class="cls-2" x="27.87" y="398.46" width="903.34" height="163.18"/>
    </clipPath>
    <mask id="mask" x="27.87" y="398.48" width="903.34" height="163.18" maskUnits="userSpaceOnUse">
      <g id="mask1_668_23655" data-name="mask1 668 23655">
        <path class="cls-3" d="M931.21,398.48H27.87v163.18h903.34v-163.18Z"/>
      </g>
    </mask>
    <linearGradient id="linear-gradient" x1="80.97" y1="402.78" x2="183.12" y2="515.07" gradientTransform="translate(0 962) scale(1 -1)" gradientUnits="userSpaceOnUse">
      <stop offset="0" stop-color="#09dbf0"/>
      <stop offset="1" stop-color="#0b23a9"/>
    </linearGradient>
  </defs>
  <g class="cls-6">
    <g class="cls-7">
      <g>
        <path class="cls-4" d="M330.04,483.99c0,25.2-18.04,35.61-36.4,35.61s-36.41-10.41-36.41-35.61v-45.61h17.22v44.04c0,15.29,8.45,20.9,19.19,20.9s19.19-5.62,19.19-20.9v-44.04h17.22v45.61Z"/>
        <path class="cls-4" d="M364.14,411.78h-17.71v105.76h17.71v-105.76Z"/>
        <path class="cls-4" d="M417.88,452.1h-20.34v39.66c0,10.58,6.89,10.41,20.34,9.75v16.03c-27.06,3.31-38.05-4.13-38.05-25.78v-79.98h17.71v23.14h20.34v17.19Z"/>
        <path class="cls-4" d="M594.99,411.78h-17.71v105.76h17.71v-105.76Z"/>
        <path class="cls-4" d="M734.77,452.1h-20.34v39.66c0,10.58,6.89,10.41,20.34,9.75v16.03c-27.06,3.31-38.05-4.13-38.05-25.78v-79.98h17.71v23.14h20.34v17.19Z"/>
        <path class="cls-4" d="M747.8,444.05h17.72v73.49h-17.72v-73.49ZM748.63,428.35c-4.43-4.63-4.43-11.57,0-16.03,4.42-4.63,11.64-4.63,16.07,0,4.42,4.46,4.42,11.4-.17,16.03-4.43,4.46-11.31,4.46-15.9,0Z"/>
        <path class="cls-4" d="M668.75,434.93h18.86l-31.48,85.27c-9.6,25.53-16.89,30.41-40.17,30.41l.16-16.69c11.15.66,17.38-4.79,21.81-16.2l.82-1.65-34.76-81.14h19.35l24.44,59.99,20.99-59.99Z"/>
        <path class="cls-4" d="M790.65,507.14c-8.2-8.43-12.3-18.67-12.3-30.9s4.1-22.64,12.3-30.9c8.36-8.43,18.69-12.56,30.99-12.56,15.91,0,30.01,8.26,36.57,21.32l-15.25,8.92c-3.77-7.93-11.64-12.72-21.48-12.72-7.22,0-13.28,2.48-18.2,7.44-4.76,4.96-7.22,11.07-7.22,18.51s2.46,13.55,7.22,18.51c4.92,4.96,10.98,7.44,18.2,7.44,9.68,0,17.88-4.96,21.82-12.73l15.25,8.76c-7.05,13.22-20.99,21.48-36.89,21.48-12.3,0-22.63-4.13-30.99-12.56Z"/>
        <path class="cls-4" d="M902.4,468.47c12.63,2.81,29.02,8.1,28.69,25.78,0,7.93-3.12,14.21-9.18,18.67-6.06,4.46-13.61,6.78-22.79,6.78-16.24,0-28.21-7.27-33.46-19.34l15.25-8.92c2.79,7.93,8.86,11.9,18.21,11.9s13.94-3.14,13.94-9.26c0-5.29-6.89-8.43-15.58-10.58-12.3-3.14-28.86-8.1-28.54-25.45,0-7.6,2.79-13.72,8.53-18.34,5.74-4.63,12.96-6.94,21.48-6.94,13.62,0,24.6,6.44,30.34,17.19l-14.93,8.43c-2.78-6.28-8.04-9.42-15.42-9.42-6.72,0-11.97,2.98-11.97,8.76,0,5.45,6.89,8.26,15.42,10.74Z"/>
        <path class="cls-4" d="M520.38,502.68c7.38,0,13.61-2.48,18.53-7.44,4.92-5.12,7.38-11.4,7.38-19s-2.46-13.88-7.38-18.84c-4.92-5.12-11.15-7.6-18.53-7.6s-13.61,2.48-18.53,7.6c-4.92,4.96-7.38,11.24-7.38,18.84s2.46,13.88,7.38,19c4.92,4.96,11.15,7.44,18.53,7.44ZM546.29,434.93h17.71v82.63h-17.71v-11.9c-6.72,9.42-16.23,14.05-28.7,14.05-11.32,0-20.83-4.13-28.86-12.56-8.04-8.43-11.97-18.84-11.97-30.9s3.93-22.47,11.97-30.9c8.04-8.43,17.55-12.56,28.86-12.56,12.46,0,21.97,4.63,28.7,13.88v-11.73Z"/>
        <path class="cls-4" d="M448.16,449.89c4.31-9.98,12.62-14.97,24.59-14.97v18.83c-6.54-.48-12.29,1.13-17.24,4.83-4.95,3.54-7.35,9.49-7.35,17.7v40.55h-17.25v-80.46h17.25v13.52Z"/>
        <path class="cls-1" d="M127.97,443.14v22.77c.08,31.07-25.07,56.42-55.8,56.37-12.21-.02-23.32-3.77-32.33-10.32,16.16,29.28,47.15,49.05,82.38,49.09,51.18-.03,93.46-42,94.25-93.62v-.22c.04-1.19-.02-23.2.04-24.17-.07-24.49-19.95-44.62-44.25-44.56-24.41-.05-44.38,19.96-44.29,44.67Z"/>
        <path class="cls-5" d="M72.12,421.38c-24.4,0-44.25,20-44.25,44.59s19.85,44.59,44.25,44.59,44.25-20,44.25-44.59-19.85-44.59-44.25-44.59Z"/>
      </g>
    </g>
  </g>
</svg>